<?xml version="1.0" encoding="UTF-8" standalone="no"?>
<!DOCTYPE svg PUBLIC "-//W3C//DTD SVG 1.1//EN"
 "http://www.w3.org/Graphics/SVG/1.1/DTD/svg11.dtd">
<!-- Generated by graphviz version 5.0.0 (20220707.1540)
 -->
<!-- Title: dependencies Pages: 1 -->
<svg width="314pt" height="174pt"
 viewBox="0.00 0.00 314.00 173.80" xmlns="http://www.w3.org/2000/svg" xmlns:xlink="http://www.w3.org/1999/xlink">
<g id="graph0" class="graph" transform="scale(1 1) rotate(0) translate(4 169.8)">
<title>dependencies</title>
<polygon fill="white" stroke="transparent" points="-4,4 -4,-169.8 310,-169.8 310,4 -4,4"/>
<text text-anchor="middle" x="153" y="-8.2" font-family="sans-serif" font-size="14.00">dependencies</text>
<g id="clust1" class="cluster">
<title>cluster_UsersModule</title>
<polygon fill="none" stroke="black" stroke-dasharray="1,5" points="8,-32.8 8,-157.8 298,-157.8 298,-32.8 8,-32.8"/>
</g>
<g id="clust6" class="cluster">
<title>cluster_UsersModule_providers</title>
<polygon fill="none" stroke="black" points="16,-40.8 16,-92.8 290,-92.8 290,-40.8 16,-40.8"/>
</g>
<!-- CaslFactory -->
<g id="node1" class="node">
<title>CaslFactory</title>
<ellipse fill="#fdb462" stroke="black" cx="224" cy="-66.8" rx="57.91" ry="18"/>
<text text-anchor="middle" x="224" y="-62.6" font-family="Times,serif" font-size="14.00">CaslFactory</text>
</g>
<!-- UsersModule -->
<g id="node3" class="node">
<title>UsersModule</title>
<polygon fill="#8dd3c7" stroke="black" points="200.94,-149.8 197.94,-153.8 176.94,-153.8 173.94,-149.8 109.06,-149.8 109.06,-113.8 200.94,-113.8 200.94,-149.8"/>
<text text-anchor="middle" x="155" y="-127.6" font-family="Times,serif" font-size="14.00">UsersModule</text>
</g>
<!-- CaslFactory&#45;&gt;UsersModule -->
<g id="edge1" class="edge">
<title>CaslFactory&#45;&gt;UsersModule</title>
<path fill="none" stroke="black" d="M183.51,-79.64C183.51,-79.64 183.51,-103.32 183.51,-103.32"/>
<polygon fill="black" stroke="black" points="180.01,-103.32 183.51,-113.32 187.01,-103.32 180.01,-103.32"/>
</g>
<!-- UsersService -->
<g id="node2" class="node">
<title>UsersService</title>
<ellipse fill="#fdb462" stroke="black" cx="86" cy="-66.8" rx="61.97" ry="18"/>
<text text-anchor="middle" x="86" y="-62.6" font-family="Times,serif" font-size="14.00">UsersService</text>
</g>
<!-- UsersService&#45;&gt;UsersModule -->
<g id="edge2" class="edge">
<title>UsersService&#45;&gt;UsersModule</title>
<path fill="none" stroke="black" d="M128.63,-79.95C128.63,-79.95 128.63,-103.49 128.63,-103.49"/>
<polygon fill="black" stroke="black" points="125.13,-103.49 128.63,-113.49 132.13,-103.49 125.13,-103.49"/>
</g>
</g>
</svg>
