<?xml version="1.0" encoding="UTF-8" standalone="no"?>
<!DOCTYPE svg PUBLIC "-//W3C//DTD SVG 1.1//EN"
 "http://www.w3.org/Graphics/SVG/1.1/DTD/svg11.dtd">
<!-- Generated by graphviz version 5.0.0 (20220707.1540)
 -->
<!-- Title: dependencies Pages: 1 -->
<svg width="934pt" height="250pt"
 viewBox="0.00 0.00 934.00 249.80" xmlns="http://www.w3.org/2000/svg" xmlns:xlink="http://www.w3.org/1999/xlink">
<g id="graph0" class="graph" transform="scale(1 1) rotate(0) translate(4 245.8)">
<title>dependencies</title>
<polygon fill="white" stroke="transparent" points="-4,4 -4,-245.8 930,-245.8 930,4 -4,4"/>
<text text-anchor="middle" x="463" y="-8.2" font-family="sans-serif" font-size="14.00">dependencies</text>
<g id="clust1" class="cluster">
<title>cluster_AppModule</title>
<polygon fill="none" stroke="black" stroke-dasharray="1,5" points="267,-108.8 267,-233.8 736,-233.8 736,-108.8 267,-108.8"/>
</g>
<g id="clust3" class="cluster">
<title>cluster_AppModule_imports</title>
<polygon fill="none" stroke="black" points="413,-116.8 413,-168.8 728,-168.8 728,-116.8 413,-116.8"/>
</g>
<g id="clust6" class="cluster">
<title>cluster_AppModule_providers</title>
<polygon fill="none" stroke="black" points="275,-116.8 275,-168.8 405,-168.8 405,-116.8 275,-116.8"/>
</g>
<g id="clust7" class="cluster">
<title>cluster_AuthModule</title>
<polygon fill="none" stroke="black" stroke-dasharray="1,5" points="8,-32.8 8,-100.8 650,-100.8 650,-32.8 8,-32.8"/>
</g>
<g id="clust10" class="cluster">
<title>cluster_AuthModule_exports</title>
<polygon fill="none" stroke="black" points="16,-40.8 16,-92.8 226,-92.8 226,-40.8 16,-40.8"/>
</g>
<g id="clust12" class="cluster">
<title>cluster_AuthModule_providers</title>
<polygon fill="none" stroke="black" points="234,-40.8 234,-92.8 642,-92.8 642,-40.8 234,-40.8"/>
</g>
<g id="clust13" class="cluster">
<title>cluster_CaslModule</title>
<polygon fill="none" stroke="black" stroke-dasharray="1,5" points="658,-32.8 658,-100.8 918,-100.8 918,-32.8 658,-32.8"/>
</g>
<g id="clust16" class="cluster">
<title>cluster_CaslModule_exports</title>
<polygon fill="none" stroke="black" points="806,-40.8 806,-92.8 910,-92.8 910,-40.8 806,-40.8"/>
</g>
<g id="clust18" class="cluster">
<title>cluster_CaslModule_providers</title>
<polygon fill="none" stroke="black" points="666,-40.8 666,-92.8 798,-92.8 798,-40.8 666,-40.8"/>
</g>
<!-- AuthModule -->
<g id="node1" class="node">
<title>AuthModule</title>
<polygon fill="#8dd3c7" stroke="black" points="508.55,-160.8 505.55,-164.8 484.55,-164.8 481.55,-160.8 421.45,-160.8 421.45,-124.8 508.55,-124.8 508.55,-160.8"/>
<text text-anchor="middle" x="465" y="-138.6" font-family="Times,serif" font-size="14.00">AuthModule</text>
</g>
<!-- AppModule -->
<g id="node4" class="node">
<title>AppModule</title>
<polygon fill="#8dd3c7" stroke="black" points="559.66,-225.8 556.66,-229.8 535.66,-229.8 532.66,-225.8 476.34,-225.8 476.34,-189.8 559.66,-189.8 559.66,-225.8"/>
<text text-anchor="middle" x="518" y="-203.6" font-family="Times,serif" font-size="14.00">AppModule</text>
</g>
<!-- AuthModule&#45;&gt;AppModule -->
<g id="edge1" class="edge">
<title>AuthModule&#45;&gt;AppModule</title>
<path fill="none" stroke="black" d="M492.47,-160.91C492.47,-160.91 492.47,-179.79 492.47,-179.79"/>
<polygon fill="black" stroke="black" points="488.97,-179.79 492.47,-189.79 495.97,-179.79 488.97,-179.79"/>
</g>
<!-- AuthService  -->
<g id="node6" class="node">
<title>AuthService </title>
<polygon fill="#fb8072" stroke="black" points="217.98,-84.8 128.02,-84.8 128.02,-48.8 217.98,-48.8 217.98,-84.8"/>
<text text-anchor="middle" x="173" y="-62.6" font-family="Times,serif" font-size="14.00">AuthService </text>
</g>
<!-- AuthModule&#45;&gt;AuthService  -->
<g id="edge5" class="edge">
<title>AuthModule&#45;&gt;AuthService </title>
<path fill="none" stroke="black" stroke-dasharray="5,2" d="M449.66,-124.74C449.66,-113.36 449.66,-100.8 449.66,-100.8 449.66,-100.8 173,-100.8 173,-100.8 173,-100.8 173,-94.99 173,-94.99"/>
<polygon fill="black" stroke="black" points="176.5,-94.99 173,-84.99 169.5,-94.99 176.5,-94.99"/>
</g>
<!-- JwtStrategy  -->
<g id="node7" class="node">
<title>JwtStrategy </title>
<polygon fill="#fb8072" stroke="black" points="109.6,-84.8 24.4,-84.8 24.4,-48.8 109.6,-48.8 109.6,-84.8"/>
<text text-anchor="middle" x="67" y="-62.6" font-family="Times,serif" font-size="14.00">JwtStrategy </text>
</g>
<!-- AuthModule&#45;&gt;JwtStrategy  -->
<g id="edge6" class="edge">
<title>AuthModule&#45;&gt;JwtStrategy </title>
<path fill="none" stroke="black" stroke-dasharray="5,2" d="M435.44,-124.61C435.44,-116.52 435.44,-108.8 435.44,-108.8 435.44,-108.8 67,-108.8 67,-108.8 67,-108.8 67,-94.86 67,-94.86"/>
<polygon fill="black" stroke="black" points="70.5,-94.86 67,-84.86 63.5,-94.86 70.5,-94.86"/>
</g>
<!-- CaslModule -->
<g id="node2" class="node">
<title>CaslModule</title>
<polygon fill="#8dd3c7" stroke="black" points="720.44,-160.8 717.44,-164.8 696.44,-164.8 693.44,-160.8 635.56,-160.8 635.56,-124.8 720.44,-124.8 720.44,-160.8"/>
<text text-anchor="middle" x="678" y="-138.6" font-family="Times,serif" font-size="14.00">CaslModule</text>
</g>
<!-- CaslModule&#45;&gt;AppModule -->
<g id="edge2" class="edge">
<title>CaslModule&#45;&gt;AppModule</title>
<path fill="none" stroke="black" d="M678,-160.91C678,-180.14 678,-207.8 678,-207.8 678,-207.8 570.04,-207.8 570.04,-207.8"/>
<polygon fill="black" stroke="black" points="570.04,-204.3 560.04,-207.8 570.04,-211.3 570.04,-204.3"/>
</g>
<!-- CaslFactory  -->
<g id="node11" class="node">
<title>CaslFactory </title>
<polygon fill="#fb8072" stroke="black" points="901.66,-84.8 814.34,-84.8 814.34,-48.8 901.66,-48.8 901.66,-84.8"/>
<text text-anchor="middle" x="858" y="-62.6" font-family="Times,serif" font-size="14.00">CaslFactory </text>
</g>
<!-- CaslModule&#45;&gt;CaslFactory  -->
<g id="edge10" class="edge">
<title>CaslModule&#45;&gt;CaslFactory </title>
<path fill="none" stroke="black" stroke-dasharray="5,2" d="M720.66,-142.8C773.89,-142.8 858,-142.8 858,-142.8 858,-142.8 858,-94.81 858,-94.81"/>
<polygon fill="black" stroke="black" points="861.5,-94.81 858,-84.81 854.5,-94.81 861.5,-94.81"/>
</g>
<!-- UsersModule -->
<g id="node3" class="node">
<title>UsersModule</title>
<polygon fill="#8dd3c7" stroke="black" points="617.94,-160.8 614.94,-164.8 593.94,-164.8 590.94,-160.8 526.06,-160.8 526.06,-124.8 617.94,-124.8 617.94,-160.8"/>
<text text-anchor="middle" x="572" y="-138.6" font-family="Times,serif" font-size="14.00">UsersModule</text>
</g>
<!-- UsersModule&#45;&gt;AppModule -->
<g id="edge3" class="edge">
<title>UsersModule&#45;&gt;AppModule</title>
<path fill="none" stroke="black" d="M543.06,-160.91C543.06,-160.91 543.06,-179.79 543.06,-179.79"/>
<polygon fill="black" stroke="black" points="539.56,-179.79 543.06,-189.79 546.56,-179.79 539.56,-179.79"/>
</g>
<!-- AppService -->
<g id="node5" class="node">
<title>AppService</title>
<ellipse fill="#fdb462" stroke="black" cx="340" cy="-142.8" rx="56.75" ry="18"/>
<text text-anchor="middle" x="340" y="-138.6" font-family="Times,serif" font-size="14.00">AppService</text>
</g>
<!-- AppService&#45;&gt;AppModule -->
<g id="edge4" class="edge">
<title>AppService&#45;&gt;AppModule</title>
<path fill="none" stroke="black" d="M340,-160.91C340,-180.14 340,-207.8 340,-207.8 340,-207.8 466.27,-207.8 466.27,-207.8"/>
<polygon fill="black" stroke="black" points="466.27,-211.3 476.27,-207.8 466.27,-204.3 466.27,-211.3"/>
</g>
<!-- AuthService -->
<g id="node8" class="node">
<title>AuthService</title>
<ellipse fill="#fdb462" stroke="black" cx="433" cy="-66.8" rx="59.11" ry="18"/>
<text text-anchor="middle" x="433" y="-62.6" font-family="Times,serif" font-size="14.00">AuthService</text>
</g>
<!-- AuthService&#45;&gt;AuthModule -->
<g id="edge7" class="edge">
<title>AuthService&#45;&gt;AuthModule</title>
<path fill="none" stroke="black" d="M478.09,-78.68C478.09,-78.68 478.09,-114.79 478.09,-114.79"/>
<polygon fill="black" stroke="black" points="474.59,-114.79 478.09,-124.79 481.59,-114.79 474.59,-114.79"/>
</g>
<!-- JwtStrategy -->
<g id="node9" class="node">
<title>JwtStrategy</title>
<ellipse fill="#fdb462" stroke="black" cx="299" cy="-66.8" rx="56.77" ry="18"/>
<text text-anchor="middle" x="299" y="-62.6" font-family="Times,serif" font-size="14.00">JwtStrategy</text>
</g>
<!-- JwtStrategy&#45;&gt;AuthModule -->
<g id="edge8" class="edge">
<title>JwtStrategy&#45;&gt;AuthModule</title>
<path fill="none" stroke="black" d="M319.5,-83.71C319.5,-88.67 319.5,-92.8 319.5,-92.8 319.5,-92.8 463.87,-92.8 463.87,-92.8 463.87,-92.8 463.87,-114.75 463.87,-114.75"/>
<polygon fill="black" stroke="black" points="460.37,-114.75 463.87,-124.75 467.37,-114.75 460.37,-114.75"/>
</g>
<!-- UsersService -->
<g id="node10" class="node">
<title>UsersService</title>
<ellipse fill="#fdb462" stroke="black" cx="572" cy="-66.8" rx="61.97" ry="18"/>
<text text-anchor="middle" x="572" y="-62.6" font-family="Times,serif" font-size="14.00">UsersService</text>
</g>
<!-- UsersService&#45;&gt;AuthModule -->
<g id="edge9" class="edge">
<title>UsersService&#45;&gt;AuthModule</title>
<path fill="none" stroke="black" d="M518.15,-75.82C518.15,-95.95 518.15,-142.8 518.15,-142.8 518.15,-142.8 517.22,-142.8 517.22,-142.8"/>
<polygon fill="black" stroke="black" points="518.89,-139.3 508.89,-142.8 518.89,-146.3 518.89,-139.3"/>
</g>
<!-- UsersService&#45;&gt;UsersModule -->
<g id="edge13" class="edge">
<title>UsersService&#45;&gt;UsersModule</title>
<path fill="none" stroke="black" d="M556.76,-84.43C556.76,-84.43 556.76,-114.74 556.76,-114.74"/>
<polygon fill="black" stroke="black" points="553.26,-114.74 556.76,-124.74 560.26,-114.74 553.26,-114.74"/>
</g>
<!-- CaslFactory -->
<g id="node12" class="node">
<title>CaslFactory</title>
<ellipse fill="#fdb462" stroke="black" cx="732" cy="-66.8" rx="57.91" ry="18"/>
<text text-anchor="middle" x="732" y="-62.6" font-family="Times,serif" font-size="14.00">CaslFactory</text>
</g>
<!-- CaslFactory&#45;&gt;CaslModule -->
<g id="edge11" class="edge">
<title>CaslFactory&#45;&gt;CaslModule</title>
<path fill="none" stroke="black" d="M704.91,-82.92C704.91,-82.92 704.91,-114.57 704.91,-114.57"/>
<polygon fill="black" stroke="black" points="701.41,-114.57 704.91,-124.57 708.41,-114.57 701.41,-114.57"/>
</g>
<!-- CaslFactory&#45;&gt;UsersModule -->
<g id="edge12" class="edge">
<title>CaslFactory&#45;&gt;UsersModule</title>
<path fill="none" stroke="black" d="M689.6,-79.16C689.6,-93.97 689.6,-116.8 689.6,-116.8 689.6,-116.8 587.24,-116.8 587.24,-116.8 587.24,-116.8 587.24,-117.59 587.24,-117.59"/>
<polygon fill="black" stroke="black" points="583.74,-114.74 587.24,-124.74 590.74,-114.74 583.74,-114.74"/>
</g>
</g>
</svg>
