<?xml version="1.0" encoding="UTF-8" standalone="no"?>
<!DOCTYPE svg PUBLIC "-//W3C//DTD SVG 1.1//EN"
 "http://www.w3.org/Graphics/SVG/1.1/DTD/svg11.dtd">
<!-- Generated by graphviz version 5.0.0 (20220707.1540)
 -->
<!-- Title: dependencies Pages: 1 -->
<svg width="494pt" height="174pt"
 viewBox="0.00 0.00 494.00 173.80" xmlns="http://www.w3.org/2000/svg" xmlns:xlink="http://www.w3.org/1999/xlink">
<g id="graph0" class="graph" transform="scale(1 1) rotate(0) translate(4 169.8)">
<title>dependencies</title>
<polygon fill="white" stroke="transparent" points="-4,4 -4,-169.8 490,-169.8 490,4 -4,4"/>
<text text-anchor="middle" x="243" y="-8.2" font-family="sans-serif" font-size="14.00">dependencies</text>
<g id="clust1" class="cluster">
<title>cluster_AppModule</title>
<polygon fill="none" stroke="black" stroke-dasharray="1,5" points="8,-32.8 8,-157.8 478,-157.8 478,-32.8 8,-32.8"/>
</g>
<g id="clust3" class="cluster">
<title>cluster_AppModule_imports</title>
<polygon fill="none" stroke="black" points="154,-40.8 154,-92.8 470,-92.8 470,-40.8 154,-40.8"/>
</g>
<g id="clust6" class="cluster">
<title>cluster_AppModule_providers</title>
<polygon fill="none" stroke="black" points="16,-40.8 16,-92.8 146,-92.8 146,-40.8 16,-40.8"/>
</g>
<!-- AuthModule -->
<g id="node1" class="node">
<title>AuthModule</title>
<polygon fill="#8dd3c7" stroke="black" points="461.55,-84.8 458.55,-88.8 437.55,-88.8 434.55,-84.8 374.45,-84.8 374.45,-48.8 461.55,-48.8 461.55,-84.8"/>
<text text-anchor="middle" x="418" y="-62.6" font-family="Times,serif" font-size="14.00">AuthModule</text>
</g>
<!-- AppModule -->
<g id="node4" class="node">
<title>AppModule</title>
<polygon fill="#8dd3c7" stroke="black" points="302.66,-149.8 299.66,-153.8 278.66,-153.8 275.66,-149.8 219.34,-149.8 219.34,-113.8 302.66,-113.8 302.66,-149.8"/>
<text text-anchor="middle" x="261" y="-127.6" font-family="Times,serif" font-size="14.00">AppModule</text>
</g>
<!-- AuthModule&#45;&gt;AppModule -->
<g id="edge1" class="edge">
<title>AuthModule&#45;&gt;AppModule</title>
<path fill="none" stroke="black" d="M418,-84.91C418,-104.14 418,-131.8 418,-131.8 418,-131.8 313.07,-131.8 313.07,-131.8"/>
<polygon fill="black" stroke="black" points="313.07,-128.3 303.07,-131.8 313.07,-135.3 313.07,-128.3"/>
</g>
<!-- CaslModule -->
<g id="node2" class="node">
<title>CaslModule</title>
<polygon fill="#8dd3c7" stroke="black" points="356.44,-84.8 353.44,-88.8 332.44,-88.8 329.44,-84.8 271.56,-84.8 271.56,-48.8 356.44,-48.8 356.44,-84.8"/>
<text text-anchor="middle" x="314" y="-62.6" font-family="Times,serif" font-size="14.00">CaslModule</text>
</g>
<!-- CaslModule&#45;&gt;AppModule -->
<g id="edge2" class="edge">
<title>CaslModule&#45;&gt;AppModule</title>
<path fill="none" stroke="black" d="M287.31,-84.91C287.31,-84.91 287.31,-103.79 287.31,-103.79"/>
<polygon fill="black" stroke="black" points="283.81,-103.79 287.31,-113.79 290.81,-103.79 283.81,-103.79"/>
</g>
<!-- UsersModule -->
<g id="node3" class="node">
<title>UsersModule</title>
<polygon fill="#8dd3c7" stroke="black" points="253.94,-84.8 250.94,-88.8 229.94,-88.8 226.94,-84.8 162.06,-84.8 162.06,-48.8 253.94,-48.8 253.94,-84.8"/>
<text text-anchor="middle" x="208" y="-62.6" font-family="Times,serif" font-size="14.00">UsersModule</text>
</g>
<!-- UsersModule&#45;&gt;AppModule -->
<g id="edge3" class="edge">
<title>UsersModule&#45;&gt;AppModule</title>
<path fill="none" stroke="black" d="M236.44,-84.91C236.44,-84.91 236.44,-103.79 236.44,-103.79"/>
<polygon fill="black" stroke="black" points="232.94,-103.79 236.44,-113.79 239.94,-103.79 232.94,-103.79"/>
</g>
<!-- AppService -->
<g id="node5" class="node">
<title>AppService</title>
<ellipse fill="#fdb462" stroke="black" cx="81" cy="-66.8" rx="56.75" ry="18"/>
<text text-anchor="middle" x="81" y="-62.6" font-family="Times,serif" font-size="14.00">AppService</text>
</g>
<!-- AppService&#45;&gt;AppModule -->
<g id="edge4" class="edge">
<title>AppService&#45;&gt;AppModule</title>
<path fill="none" stroke="black" d="M81,-84.91C81,-104.14 81,-131.8 81,-131.8 81,-131.8 209.25,-131.8 209.25,-131.8"/>
<polygon fill="black" stroke="black" points="209.25,-135.3 219.25,-131.8 209.25,-128.3 209.25,-135.3"/>
</g>
</g>
</svg>
