<?xml version="1.0" encoding="UTF-8" standalone="no"?>
<!DOCTYPE svg PUBLIC "-//W3C//DTD SVG 1.1//EN"
 "http://www.w3.org/Graphics/SVG/1.1/DTD/svg11.dtd">
<!-- Generated by graphviz version 5.0.0 (20220707.1540)
 -->
<!-- Title: dependencies Pages: 1 -->
<svg width="448pt" height="247pt"
 viewBox="0.00 0.00 448.00 246.80" xmlns="http://www.w3.org/2000/svg" xmlns:xlink="http://www.w3.org/1999/xlink">
<g id="graph0" class="graph" transform="scale(1 1) rotate(0) translate(4 242.8)">
<title>dependencies</title>
<polygon fill="white" stroke="transparent" points="-4,4 -4,-242.8 444,-242.8 444,4 -4,4"/>
<text text-anchor="middle" x="220" y="-8.2" font-family="sans-serif" font-size="14.00">dependencies</text>
<g id="clust1" class="cluster">
<title>cluster_AuthModule</title>
<polygon fill="none" stroke="black" stroke-dasharray="1,5" points="8,-32.8 8,-230.8 432,-230.8 432,-32.8 8,-32.8"/>
</g>
<g id="clust4" class="cluster">
<title>cluster_AuthModule_exports</title>
<polygon fill="none" stroke="black" points="119,-170.8 119,-222.8 329,-222.8 329,-170.8 119,-170.8"/>
</g>
<g id="clust6" class="cluster">
<title>cluster_AuthModule_providers</title>
<polygon fill="none" stroke="black" points="16,-40.8 16,-92.8 424,-92.8 424,-40.8 16,-40.8"/>
</g>
<!-- AuthService  -->
<g id="node1" class="node">
<title>AuthService </title>
<polygon fill="#fb8072" stroke="black" points="320.98,-214.8 231.02,-214.8 231.02,-178.8 320.98,-178.8 320.98,-214.8"/>
<text text-anchor="middle" x="276" y="-192.6" font-family="Times,serif" font-size="14.00">AuthService </text>
</g>
<!-- JwtStrategy  -->
<g id="node2" class="node">
<title>JwtStrategy </title>
<polygon fill="#fb8072" stroke="black" points="212.6,-214.8 127.4,-214.8 127.4,-178.8 212.6,-178.8 212.6,-214.8"/>
<text text-anchor="middle" x="170" y="-192.6" font-family="Times,serif" font-size="14.00">JwtStrategy </text>
</g>
<!-- AuthModule -->
<g id="node3" class="node">
<title>AuthModule</title>
<polygon fill="#8dd3c7" stroke="black" points="266.55,-149.8 263.55,-153.8 242.55,-153.8 239.55,-149.8 179.45,-149.8 179.45,-113.8 266.55,-113.8 266.55,-149.8"/>
<text text-anchor="middle" x="223" y="-127.6" font-family="Times,serif" font-size="14.00">AuthModule</text>
</g>
<!-- AuthModule&#45;&gt;AuthService  -->
<g id="edge1" class="edge">
<title>AuthModule&#45;&gt;AuthService </title>
<path fill="none" stroke="black" stroke-dasharray="5,2" d="M249.02,-149.91C249.02,-149.91 249.02,-168.79 249.02,-168.79"/>
<polygon fill="black" stroke="black" points="245.52,-168.79 249.02,-178.79 252.52,-168.79 245.52,-168.79"/>
</g>
<!-- AuthModule&#45;&gt;JwtStrategy  -->
<g id="edge2" class="edge">
<title>AuthModule&#45;&gt;JwtStrategy </title>
<path fill="none" stroke="black" stroke-dasharray="5,2" d="M196.01,-149.91C196.01,-149.91 196.01,-168.79 196.01,-168.79"/>
<polygon fill="black" stroke="black" points="192.51,-168.79 196.01,-178.79 199.51,-168.79 192.51,-168.79"/>
</g>
<!-- AuthService -->
<g id="node4" class="node">
<title>AuthService</title>
<ellipse fill="#fdb462" stroke="black" cx="357" cy="-66.8" rx="59.11" ry="18"/>
<text text-anchor="middle" x="357" y="-62.6" font-family="Times,serif" font-size="14.00">AuthService</text>
</g>
<!-- AuthService&#45;&gt;AuthModule -->
<g id="edge3" class="edge">
<title>AuthService&#45;&gt;AuthModule</title>
<path fill="none" stroke="black" d="M309.22,-77.53C309.22,-96 309.22,-131.8 309.22,-131.8 309.22,-131.8 276.61,-131.8 276.61,-131.8"/>
<polygon fill="black" stroke="black" points="276.61,-128.3 266.61,-131.8 276.61,-135.3 276.61,-128.3"/>
</g>
<!-- JwtStrategy -->
<g id="node5" class="node">
<title>JwtStrategy</title>
<ellipse fill="#fdb462" stroke="black" cx="223" cy="-66.8" rx="56.77" ry="18"/>
<text text-anchor="middle" x="223" y="-62.6" font-family="Times,serif" font-size="14.00">JwtStrategy</text>
</g>
<!-- JwtStrategy&#45;&gt;AuthModule -->
<g id="edge4" class="edge">
<title>JwtStrategy&#45;&gt;AuthModule</title>
<path fill="none" stroke="black" d="M223,-84.91C223,-84.91 223,-103.79 223,-103.79"/>
<polygon fill="black" stroke="black" points="219.5,-103.79 223,-113.79 226.5,-103.79 219.5,-103.79"/>
</g>
<!-- UsersService -->
<g id="node6" class="node">
<title>UsersService</title>
<ellipse fill="#fdb462" stroke="black" cx="86" cy="-66.8" rx="61.97" ry="18"/>
<text text-anchor="middle" x="86" y="-62.6" font-family="Times,serif" font-size="14.00">UsersService</text>
</g>
<!-- UsersService&#45;&gt;AuthModule -->
<g id="edge5" class="edge">
<title>UsersService&#45;&gt;AuthModule</title>
<path fill="none" stroke="black" d="M137.59,-76.96C137.59,-95.24 137.59,-131.8 137.59,-131.8 137.59,-131.8 169.3,-131.8 169.3,-131.8"/>
<polygon fill="black" stroke="black" points="169.3,-135.3 179.3,-131.8 169.3,-128.3 169.3,-135.3"/>
</g>
</g>
</svg>
